<mxfile host="app.diagrams.net" modified="2023-01-11T00:38:26.905Z" agent="5.0 (Windows NT 10.0; Win64; x64) AppleWebKit/537.36 (KHTML, like Gecko) Chrome/108.0.0.0 Safari/537.36" version="20.6.0" etag="vEsHHxzMPdkJPMOkNiKo" type="github">
  <diagram id="TIHsoBNiSvZj5yawtPr-" name="Página-1">
    <mxGraphModel dx="2253" dy="794" grid="1" gridSize="10" guides="1" tooltips="1" connect="1" arrows="1" fold="1" page="1" pageScale="1" pageWidth="827" pageHeight="1169" math="0" shadow="0">
      <root>
        <mxCell id="0" />
        <mxCell id="1" parent="0" />
        <mxCell id="hfVkXIuvT78MhlZP0iKI-267" value="&lt;font style=&quot;font-size: 14px;&quot;&gt;&lt;b&gt;professor&lt;/b&gt;&lt;/font&gt;" style="rounded=0;whiteSpace=wrap;html=1;fillColor=#6d8764;fontColor=#ffffff;strokeColor=#3A5431;" vertex="1" parent="1">
          <mxGeometry x="-760" y="220" width="120" height="60" as="geometry" />
        </mxCell>
        <mxCell id="hfVkXIuvT78MhlZP0iKI-268" value="&lt;font style=&quot;font-size: 14px;&quot;&gt;&lt;b&gt;leciona&lt;/b&gt;&lt;/font&gt;" style="rhombus;whiteSpace=wrap;html=1;fillColor=#6d8764;fontColor=#ffffff;strokeColor=#3A5431;" vertex="1" parent="1">
          <mxGeometry x="-510" y="200" width="80" height="80" as="geometry" />
        </mxCell>
        <mxCell id="hfVkXIuvT78MhlZP0iKI-269" value="&lt;font style=&quot;font-size: 14px;&quot;&gt;&lt;b&gt;matérias&lt;/b&gt;&lt;/font&gt;" style="rounded=0;whiteSpace=wrap;html=1;fillColor=#6d8764;fontColor=#ffffff;strokeColor=#3A5431;" vertex="1" parent="1">
          <mxGeometry x="-250" y="220" width="120" height="60" as="geometry" />
        </mxCell>
        <mxCell id="hfVkXIuvT78MhlZP0iKI-270" value="" style="endArrow=none;html=1;rounded=0;entryX=0;entryY=0.5;entryDx=0;entryDy=0;" edge="1" parent="1" target="hfVkXIuvT78MhlZP0iKI-268">
          <mxGeometry width="50" height="50" relative="1" as="geometry">
            <mxPoint x="-640" y="240" as="sourcePoint" />
            <mxPoint x="-590" y="190" as="targetPoint" />
          </mxGeometry>
        </mxCell>
        <mxCell id="hfVkXIuvT78MhlZP0iKI-271" value="1" style="edgeLabel;html=1;align=center;verticalAlign=middle;resizable=0;points=[];" vertex="1" connectable="0" parent="hfVkXIuvT78MhlZP0iKI-270">
          <mxGeometry x="-0.2125" y="4" relative="1" as="geometry">
            <mxPoint y="-6" as="offset" />
          </mxGeometry>
        </mxCell>
        <mxCell id="hfVkXIuvT78MhlZP0iKI-272" value="" style="endArrow=none;html=1;rounded=0;exitX=1;exitY=0.5;exitDx=0;exitDy=0;" edge="1" parent="1" source="hfVkXIuvT78MhlZP0iKI-268">
          <mxGeometry width="50" height="50" relative="1" as="geometry">
            <mxPoint x="-420" y="239.5" as="sourcePoint" />
            <mxPoint x="-250" y="240" as="targetPoint" />
            <Array as="points">
              <mxPoint x="-330" y="240" />
            </Array>
          </mxGeometry>
        </mxCell>
        <mxCell id="hfVkXIuvT78MhlZP0iKI-273" value="N" style="edgeLabel;html=1;align=center;verticalAlign=middle;resizable=0;points=[];" vertex="1" connectable="0" parent="hfVkXIuvT78MhlZP0iKI-272">
          <mxGeometry x="-0.0749" y="-2" relative="1" as="geometry">
            <mxPoint y="-12" as="offset" />
          </mxGeometry>
        </mxCell>
        <mxCell id="hfVkXIuvT78MhlZP0iKI-274" value="&lt;font style=&quot;font-size: 14px;&quot;&gt;&lt;b&gt;Turma&lt;/b&gt;&lt;/font&gt;" style="rounded=0;whiteSpace=wrap;html=1;fillColor=#6d8764;fontColor=#ffffff;strokeColor=#3A5431;" vertex="1" parent="1">
          <mxGeometry x="-230" y="400" width="120" height="60" as="geometry" />
        </mxCell>
        <mxCell id="hfVkXIuvT78MhlZP0iKI-275" value="" style="endArrow=none;html=1;rounded=0;entryX=0.5;entryY=1;entryDx=0;entryDy=0;startArrow=none;" edge="1" parent="1" target="hfVkXIuvT78MhlZP0iKI-267">
          <mxGeometry width="50" height="50" relative="1" as="geometry">
            <mxPoint x="-700" y="600" as="sourcePoint" />
            <mxPoint x="-700" y="290" as="targetPoint" />
            <Array as="points" />
          </mxGeometry>
        </mxCell>
        <mxCell id="hfVkXIuvT78MhlZP0iKI-276" value="" style="endArrow=none;html=1;rounded=0;entryX=0.5;entryY=1;entryDx=0;entryDy=0;" edge="1" parent="1">
          <mxGeometry width="50" height="50" relative="1" as="geometry">
            <mxPoint x="-700" y="360" as="sourcePoint" />
            <mxPoint x="-700" y="320" as="targetPoint" />
            <Array as="points">
              <mxPoint x="-700" y="340" />
              <mxPoint x="-700" y="320" />
              <mxPoint x="-700" y="330" />
            </Array>
          </mxGeometry>
        </mxCell>
        <mxCell id="hfVkXIuvT78MhlZP0iKI-277" value="&lt;font style=&quot;font-size: 14px;&quot;&gt;&lt;b&gt;trabalha&lt;/b&gt;&lt;/font&gt;" style="rhombus;whiteSpace=wrap;html=1;fillColor=#6d8764;fontColor=#ffffff;strokeColor=#3A5431;" vertex="1" parent="1">
          <mxGeometry x="-500" y="380" width="80" height="80" as="geometry" />
        </mxCell>
        <mxCell id="hfVkXIuvT78MhlZP0iKI-278" value="" style="endArrow=none;html=1;rounded=0;" edge="1" parent="1">
          <mxGeometry width="50" height="50" relative="1" as="geometry">
            <mxPoint x="-500" y="430" as="sourcePoint" />
            <mxPoint x="-700" y="430" as="targetPoint" />
          </mxGeometry>
        </mxCell>
        <mxCell id="hfVkXIuvT78MhlZP0iKI-279" value="&lt;font style=&quot;font-size: 14px;&quot;&gt;&lt;b&gt;trabalha&lt;/b&gt;&lt;/font&gt;" style="rhombus;whiteSpace=wrap;html=1;fillColor=#6d8764;fontColor=#ffffff;strokeColor=#3A5431;" vertex="1" parent="1">
          <mxGeometry x="-500" y="560" width="80" height="80" as="geometry" />
        </mxCell>
        <mxCell id="hfVkXIuvT78MhlZP0iKI-280" value="&lt;b&gt;&lt;font style=&quot;font-size: 14px;&quot;&gt;escola&lt;/font&gt;&lt;/b&gt;" style="rounded=0;whiteSpace=wrap;html=1;fillColor=#6d8764;fontColor=#ffffff;strokeColor=#3A5431;" vertex="1" parent="1">
          <mxGeometry x="-230" y="580" width="120" height="60" as="geometry" />
        </mxCell>
        <mxCell id="hfVkXIuvT78MhlZP0iKI-281" value="" style="endArrow=none;html=1;rounded=0;" edge="1" parent="1">
          <mxGeometry width="50" height="50" relative="1" as="geometry">
            <mxPoint x="-500" y="599.5" as="sourcePoint" />
            <mxPoint x="-700" y="599.5" as="targetPoint" />
          </mxGeometry>
        </mxCell>
        <mxCell id="hfVkXIuvT78MhlZP0iKI-282" value="" style="endArrow=none;html=1;rounded=0;" edge="1" parent="1">
          <mxGeometry width="50" height="50" relative="1" as="geometry">
            <mxPoint x="-230" y="429.5" as="sourcePoint" />
            <mxPoint x="-430" y="429.5" as="targetPoint" />
          </mxGeometry>
        </mxCell>
        <mxCell id="hfVkXIuvT78MhlZP0iKI-283" value="" style="endArrow=none;html=1;rounded=0;" edge="1" parent="1">
          <mxGeometry width="50" height="50" relative="1" as="geometry">
            <mxPoint x="-230" y="599.5" as="sourcePoint" />
            <mxPoint x="-410" y="599.5" as="targetPoint" />
          </mxGeometry>
        </mxCell>
        <mxCell id="hfVkXIuvT78MhlZP0iKI-284" value="N" style="text;html=1;strokeColor=none;fillColor=none;align=center;verticalAlign=middle;whiteSpace=wrap;rounded=0;" vertex="1" parent="1">
          <mxGeometry x="-370" y="400" width="60" height="30" as="geometry" />
        </mxCell>
        <mxCell id="hfVkXIuvT78MhlZP0iKI-285" value="N" style="text;html=1;strokeColor=none;fillColor=none;align=center;verticalAlign=middle;whiteSpace=wrap;rounded=0;" vertex="1" parent="1">
          <mxGeometry x="-640" y="400" width="60" height="30" as="geometry" />
        </mxCell>
        <mxCell id="hfVkXIuvT78MhlZP0iKI-286" value="N" style="text;html=1;strokeColor=none;fillColor=none;align=center;verticalAlign=middle;whiteSpace=wrap;rounded=0;" vertex="1" parent="1">
          <mxGeometry x="-360" y="570" width="60" height="30" as="geometry" />
        </mxCell>
        <mxCell id="hfVkXIuvT78MhlZP0iKI-287" value="N" style="text;html=1;strokeColor=none;fillColor=none;align=center;verticalAlign=middle;whiteSpace=wrap;rounded=0;" vertex="1" parent="1">
          <mxGeometry x="-630" y="570" width="60" height="30" as="geometry" />
        </mxCell>
        <mxCell id="hfVkXIuvT78MhlZP0iKI-288" value="&lt;b&gt;&lt;font style=&quot;font-size: 14px;&quot;&gt;Turma&lt;/font&gt;&lt;/b&gt;" style="rounded=0;whiteSpace=wrap;html=1;fillColor=#6d8764;fontColor=#ffffff;strokeColor=#3A5431;" vertex="1" parent="1">
          <mxGeometry x="-760" y="720" width="120" height="60" as="geometry" />
        </mxCell>
        <mxCell id="hfVkXIuvT78MhlZP0iKI-289" value="&lt;b&gt;&lt;font style=&quot;font-size: 15px;&quot;&gt;matérias&lt;/font&gt;&lt;/b&gt;" style="rounded=0;whiteSpace=wrap;html=1;fillColor=#6d8764;fontColor=#ffffff;strokeColor=#3A5431;" vertex="1" parent="1">
          <mxGeometry x="-230" y="720" width="120" height="60" as="geometry" />
        </mxCell>
        <mxCell id="hfVkXIuvT78MhlZP0iKI-290" value="&lt;b&gt;&lt;font style=&quot;font-size: 14px;&quot;&gt;trabalha&lt;/font&gt;&lt;/b&gt;" style="rhombus;whiteSpace=wrap;html=1;fillColor=#6d8764;fontColor=#ffffff;strokeColor=#3A5431;" vertex="1" parent="1">
          <mxGeometry x="-490" y="710" width="80" height="80" as="geometry" />
        </mxCell>
        <mxCell id="hfVkXIuvT78MhlZP0iKI-291" value="" style="endArrow=none;html=1;rounded=0;exitX=0;exitY=0.5;exitDx=0;exitDy=0;entryX=1;entryY=0.5;entryDx=0;entryDy=0;" edge="1" parent="1" source="hfVkXIuvT78MhlZP0iKI-290" target="hfVkXIuvT78MhlZP0iKI-288">
          <mxGeometry width="50" height="50" relative="1" as="geometry">
            <mxPoint x="-500" y="750" as="sourcePoint" />
            <mxPoint x="-630" y="750" as="targetPoint" />
          </mxGeometry>
        </mxCell>
        <mxCell id="hfVkXIuvT78MhlZP0iKI-292" value="" style="endArrow=none;html=1;rounded=0;" edge="1" parent="1">
          <mxGeometry width="50" height="50" relative="1" as="geometry">
            <mxPoint x="-230" y="749.5" as="sourcePoint" />
            <mxPoint x="-410" y="749.5" as="targetPoint" />
          </mxGeometry>
        </mxCell>
        <mxCell id="hfVkXIuvT78MhlZP0iKI-293" value="N" style="text;html=1;strokeColor=none;fillColor=none;align=center;verticalAlign=middle;whiteSpace=wrap;rounded=0;" vertex="1" parent="1">
          <mxGeometry x="-630" y="570" width="60" height="30" as="geometry" />
        </mxCell>
        <mxCell id="hfVkXIuvT78MhlZP0iKI-294" value="N" style="text;html=1;strokeColor=none;fillColor=none;align=center;verticalAlign=middle;whiteSpace=wrap;rounded=0;" vertex="1" parent="1">
          <mxGeometry x="-630" y="720" width="60" height="30" as="geometry" />
        </mxCell>
        <mxCell id="hfVkXIuvT78MhlZP0iKI-295" value="N" style="text;html=1;strokeColor=none;fillColor=none;align=center;verticalAlign=middle;whiteSpace=wrap;rounded=0;" vertex="1" parent="1">
          <mxGeometry x="-360" y="720" width="60" height="30" as="geometry" />
        </mxCell>
        <mxCell id="hfVkXIuvT78MhlZP0iKI-296" value="&lt;h1 style=&quot;text-align: center;&quot;&gt;Relacionamento de Entidade&amp;nbsp;&lt;/h1&gt;&lt;div&gt;&lt;br&gt;&lt;/div&gt;" style="text;html=1;strokeColor=none;fillColor=none;spacing=5;spacingTop=-20;whiteSpace=wrap;overflow=hidden;rounded=0;" vertex="1" parent="1">
          <mxGeometry x="-540" y="30" width="220" height="70" as="geometry" />
        </mxCell>
        <mxCell id="hfVkXIuvT78MhlZP0iKI-298" value="Aluno" style="rounded=0;whiteSpace=wrap;html=1;" vertex="1" parent="1">
          <mxGeometry x="47" y="330" width="120" height="60" as="geometry" />
        </mxCell>
        <mxCell id="hfVkXIuvT78MhlZP0iKI-299" value="Disciplina" style="rounded=0;whiteSpace=wrap;html=1;" vertex="1" parent="1">
          <mxGeometry x="491" y="330" width="120" height="60" as="geometry" />
        </mxCell>
        <mxCell id="hfVkXIuvT78MhlZP0iKI-300" value="matricula" style="rhombus;whiteSpace=wrap;html=1;" vertex="1" parent="1">
          <mxGeometry x="237" y="250" width="80" height="80" as="geometry" />
        </mxCell>
        <mxCell id="hfVkXIuvT78MhlZP0iKI-301" value="Escola" style="rounded=0;whiteSpace=wrap;html=1;" vertex="1" parent="1">
          <mxGeometry x="371" y="210" width="120" height="60" as="geometry" />
        </mxCell>
        <mxCell id="hfVkXIuvT78MhlZP0iKI-302" value="estuda" style="rhombus;whiteSpace=wrap;html=1;" vertex="1" parent="1">
          <mxGeometry x="337" y="410" width="80" height="80" as="geometry" />
        </mxCell>
        <mxCell id="hfVkXIuvT78MhlZP0iKI-303" value="Professor" style="rounded=0;whiteSpace=wrap;html=1;" vertex="1" parent="1">
          <mxGeometry x="377" y="610" width="120" height="60" as="geometry" />
        </mxCell>
        <mxCell id="hfVkXIuvT78MhlZP0iKI-304" value="Leciona" style="rhombus;whiteSpace=wrap;html=1;" vertex="1" parent="1">
          <mxGeometry x="517" y="430" width="80" height="80" as="geometry" />
        </mxCell>
        <mxCell id="hfVkXIuvT78MhlZP0iKI-305" value="Turma" style="rounded=0;whiteSpace=wrap;html=1;" vertex="1" parent="1">
          <mxGeometry x="707" y="450" width="120" height="60" as="geometry" />
        </mxCell>
        <mxCell id="hfVkXIuvT78MhlZP0iKI-306" style="edgeStyle=orthogonalEdgeStyle;rounded=0;orthogonalLoop=1;jettySize=auto;html=1;exitX=0.75;exitY=0;exitDx=0;exitDy=0;entryX=0.667;entryY=0;entryDx=0;entryDy=0;entryPerimeter=0;" edge="1" parent="1" source="hfVkXIuvT78MhlZP0iKI-298" target="hfVkXIuvT78MhlZP0iKI-298">
          <mxGeometry relative="1" as="geometry" />
        </mxCell>
        <mxCell id="hfVkXIuvT78MhlZP0iKI-307" value="" style="endArrow=none;html=1;rounded=0;entryX=0;entryY=0.5;entryDx=0;entryDy=0;" edge="1" parent="1" target="hfVkXIuvT78MhlZP0iKI-302">
          <mxGeometry width="50" height="50" relative="1" as="geometry">
            <mxPoint x="167" y="390" as="sourcePoint" />
            <mxPoint x="217" y="340" as="targetPoint" />
            <Array as="points">
              <mxPoint x="167" y="450" />
            </Array>
          </mxGeometry>
        </mxCell>
        <mxCell id="hfVkXIuvT78MhlZP0iKI-308" value="" style="endArrow=none;html=1;rounded=0;entryX=0;entryY=1;entryDx=0;entryDy=0;" edge="1" parent="1" target="hfVkXIuvT78MhlZP0iKI-299">
          <mxGeometry width="50" height="50" relative="1" as="geometry">
            <mxPoint x="417" y="450" as="sourcePoint" />
            <mxPoint x="467" y="400" as="targetPoint" />
            <Array as="points">
              <mxPoint x="491" y="450" />
            </Array>
          </mxGeometry>
        </mxCell>
        <mxCell id="hfVkXIuvT78MhlZP0iKI-309" value="" style="endArrow=none;html=1;rounded=0;entryX=0;entryY=0.5;entryDx=0;entryDy=0;" edge="1" parent="1" target="hfVkXIuvT78MhlZP0iKI-300">
          <mxGeometry width="50" height="50" relative="1" as="geometry">
            <mxPoint x="167" y="330" as="sourcePoint" />
            <mxPoint x="217" y="280" as="targetPoint" />
          </mxGeometry>
        </mxCell>
        <mxCell id="hfVkXIuvT78MhlZP0iKI-310" value="" style="endArrow=none;html=1;rounded=0;" edge="1" parent="1">
          <mxGeometry width="50" height="50" relative="1" as="geometry">
            <mxPoint x="317" y="290" as="sourcePoint" />
            <mxPoint x="367" y="270" as="targetPoint" />
          </mxGeometry>
        </mxCell>
        <mxCell id="hfVkXIuvT78MhlZP0iKI-311" value="" style="endArrow=none;html=1;rounded=0;exitX=0.5;exitY=0;exitDx=0;exitDy=0;" edge="1" parent="1" source="hfVkXIuvT78MhlZP0iKI-304">
          <mxGeometry width="50" height="50" relative="1" as="geometry">
            <mxPoint x="526" y="440" as="sourcePoint" />
            <mxPoint x="576" y="390" as="targetPoint" />
          </mxGeometry>
        </mxCell>
        <mxCell id="hfVkXIuvT78MhlZP0iKI-312" value="" style="endArrow=none;html=1;rounded=0;" edge="1" parent="1">
          <mxGeometry width="50" height="50" relative="1" as="geometry">
            <mxPoint x="557" y="650" as="sourcePoint" />
            <mxPoint x="557" y="510" as="targetPoint" />
          </mxGeometry>
        </mxCell>
        <mxCell id="hfVkXIuvT78MhlZP0iKI-313" value="" style="endArrow=none;html=1;rounded=0;entryX=-0.025;entryY=0.4;entryDx=0;entryDy=0;entryPerimeter=0;" edge="1" parent="1" target="hfVkXIuvT78MhlZP0iKI-305">
          <mxGeometry width="50" height="50" relative="1" as="geometry">
            <mxPoint x="597" y="470" as="sourcePoint" />
            <mxPoint x="647" y="420" as="targetPoint" />
          </mxGeometry>
        </mxCell>
        <mxCell id="hfVkXIuvT78MhlZP0iKI-314" value="" style="endArrow=none;html=1;rounded=0;" edge="1" parent="1">
          <mxGeometry width="50" height="50" relative="1" as="geometry">
            <mxPoint x="497" y="650" as="sourcePoint" />
            <mxPoint x="557" y="650" as="targetPoint" />
          </mxGeometry>
        </mxCell>
        <mxCell id="hfVkXIuvT78MhlZP0iKI-315" value="" style="ellipse;whiteSpace=wrap;html=1;aspect=fixed;" vertex="1" parent="1">
          <mxGeometry x="42" y="230" width="50" height="50" as="geometry" />
        </mxCell>
        <mxCell id="hfVkXIuvT78MhlZP0iKI-316" value="" style="endArrow=none;html=1;rounded=0;entryX=0.5;entryY=1;entryDx=0;entryDy=0;" edge="1" parent="1" target="hfVkXIuvT78MhlZP0iKI-315">
          <mxGeometry width="50" height="50" relative="1" as="geometry">
            <mxPoint x="67" y="330" as="sourcePoint" />
            <mxPoint x="117" y="280" as="targetPoint" />
          </mxGeometry>
        </mxCell>
        <mxCell id="hfVkXIuvT78MhlZP0iKI-317" value="Nome" style="text;html=1;strokeColor=none;fillColor=none;align=center;verticalAlign=middle;whiteSpace=wrap;rounded=0;" vertex="1" parent="1">
          <mxGeometry x="37" y="240" width="60" height="30" as="geometry" />
        </mxCell>
        <mxCell id="hfVkXIuvT78MhlZP0iKI-318" value="" style="endArrow=none;html=1;rounded=0;" edge="1" parent="1">
          <mxGeometry width="50" height="50" relative="1" as="geometry">
            <mxPoint x="77" y="450" as="sourcePoint" />
            <mxPoint x="77" y="390" as="targetPoint" />
          </mxGeometry>
        </mxCell>
        <mxCell id="hfVkXIuvT78MhlZP0iKI-319" value="" style="ellipse;whiteSpace=wrap;html=1;aspect=fixed;" vertex="1" parent="1">
          <mxGeometry x="57" y="450" width="50" height="50" as="geometry" />
        </mxCell>
        <mxCell id="hfVkXIuvT78MhlZP0iKI-320" value="endereço" style="ellipse;whiteSpace=wrap;html=1;aspect=fixed;" vertex="1" parent="1">
          <mxGeometry x="107" y="420" width="50" height="50" as="geometry" />
        </mxCell>
        <mxCell id="hfVkXIuvT78MhlZP0iKI-321" value="" style="endArrow=none;html=1;rounded=0;exitX=0.5;exitY=0;exitDx=0;exitDy=0;" edge="1" parent="1" source="hfVkXIuvT78MhlZP0iKI-320">
          <mxGeometry width="50" height="50" relative="1" as="geometry">
            <mxPoint x="82" y="440" as="sourcePoint" />
            <mxPoint x="132" y="390" as="targetPoint" />
          </mxGeometry>
        </mxCell>
        <mxCell id="hfVkXIuvT78MhlZP0iKI-322" value="" style="ellipse;whiteSpace=wrap;html=1;aspect=fixed;" vertex="1" parent="1">
          <mxGeometry x="112" y="260" width="40" height="40" as="geometry" />
        </mxCell>
        <mxCell id="hfVkXIuvT78MhlZP0iKI-323" value="" style="endArrow=none;html=1;rounded=0;entryX=0.5;entryY=1;entryDx=0;entryDy=0;" edge="1" parent="1" target="hfVkXIuvT78MhlZP0iKI-322">
          <mxGeometry width="50" height="50" relative="1" as="geometry">
            <mxPoint x="117" y="330" as="sourcePoint" />
            <mxPoint x="167" y="280" as="targetPoint" />
          </mxGeometry>
        </mxCell>
        <mxCell id="hfVkXIuvT78MhlZP0iKI-324" value="nascimento" style="text;html=1;strokeColor=none;fillColor=none;align=center;verticalAlign=middle;whiteSpace=wrap;rounded=0;" vertex="1" parent="1">
          <mxGeometry x="52" y="490" width="60" height="30" as="geometry" />
        </mxCell>
        <mxCell id="hfVkXIuvT78MhlZP0iKI-325" value="Prontuário" style="text;html=1;strokeColor=none;fillColor=none;align=center;verticalAlign=middle;whiteSpace=wrap;rounded=0;" vertex="1" parent="1">
          <mxGeometry x="102" y="235" width="65" height="35" as="geometry" />
        </mxCell>
        <mxCell id="hfVkXIuvT78MhlZP0iKI-326" value="" style="ellipse;whiteSpace=wrap;html=1;aspect=fixed;" vertex="1" parent="1">
          <mxGeometry x="17" y="410" width="30" height="30" as="geometry" />
        </mxCell>
        <mxCell id="hfVkXIuvT78MhlZP0iKI-327" value="" style="endArrow=none;html=1;rounded=0;exitX=1;exitY=0;exitDx=0;exitDy=0;" edge="1" parent="1" source="hfVkXIuvT78MhlZP0iKI-326">
          <mxGeometry width="50" height="50" relative="1" as="geometry">
            <mxPoint x="17" y="440" as="sourcePoint" />
            <mxPoint x="67" y="390" as="targetPoint" />
          </mxGeometry>
        </mxCell>
        <mxCell id="hfVkXIuvT78MhlZP0iKI-328" value="Mãe&lt;br&gt;Nome" style="text;html=1;strokeColor=none;fillColor=none;align=center;verticalAlign=middle;whiteSpace=wrap;rounded=0;" vertex="1" parent="1">
          <mxGeometry x="-3" y="440" width="60" height="30" as="geometry" />
        </mxCell>
        <mxCell id="hfVkXIuvT78MhlZP0iKI-329" value="N" style="text;html=1;strokeColor=none;fillColor=none;align=center;verticalAlign=middle;whiteSpace=wrap;rounded=0;" vertex="1" parent="1">
          <mxGeometry x="172" y="295" width="65" height="35" as="geometry" />
        </mxCell>
        <mxCell id="hfVkXIuvT78MhlZP0iKI-330" value="1" style="text;html=1;strokeColor=none;fillColor=none;align=center;verticalAlign=middle;whiteSpace=wrap;rounded=0;" vertex="1" parent="1">
          <mxGeometry x="312" y="272.5" width="65" height="35" as="geometry" />
        </mxCell>
        <mxCell id="hfVkXIuvT78MhlZP0iKI-331" value="N" style="text;html=1;strokeColor=none;fillColor=none;align=center;verticalAlign=middle;whiteSpace=wrap;rounded=0;" vertex="1" parent="1">
          <mxGeometry x="217" y="440" width="65" height="35" as="geometry" />
        </mxCell>
        <mxCell id="hfVkXIuvT78MhlZP0iKI-332" value="N" style="text;html=1;strokeColor=none;fillColor=none;align=center;verticalAlign=middle;whiteSpace=wrap;rounded=0;" vertex="1" parent="1">
          <mxGeometry x="447" y="405" width="65" height="35" as="geometry" />
        </mxCell>
        <mxCell id="hfVkXIuvT78MhlZP0iKI-333" value="N" style="text;html=1;strokeColor=none;fillColor=none;align=center;verticalAlign=middle;whiteSpace=wrap;rounded=0;" vertex="1" parent="1">
          <mxGeometry x="546" y="405" width="65" height="35" as="geometry" />
        </mxCell>
        <mxCell id="hfVkXIuvT78MhlZP0iKI-334" value="N" style="text;html=1;strokeColor=none;fillColor=none;align=center;verticalAlign=middle;whiteSpace=wrap;rounded=0;" vertex="1" parent="1">
          <mxGeometry x="637" y="440" width="65" height="35" as="geometry" />
        </mxCell>
        <mxCell id="hfVkXIuvT78MhlZP0iKI-335" value="1" style="text;html=1;strokeColor=none;fillColor=none;align=center;verticalAlign=middle;whiteSpace=wrap;rounded=0;" vertex="1" parent="1">
          <mxGeometry x="497" y="620" width="65" height="35" as="geometry" />
        </mxCell>
        <mxCell id="hfVkXIuvT78MhlZP0iKI-336" value="" style="ellipse;whiteSpace=wrap;html=1;aspect=fixed;" vertex="1" parent="1">
          <mxGeometry x="573" y="510" width="24" height="24" as="geometry" />
        </mxCell>
        <mxCell id="hfVkXIuvT78MhlZP0iKI-337" value="" style="ellipse;whiteSpace=wrap;html=1;aspect=fixed;" vertex="1" parent="1">
          <mxGeometry x="597" y="476" width="24" height="24" as="geometry" />
        </mxCell>
        <mxCell id="hfVkXIuvT78MhlZP0iKI-338" value="" style="ellipse;whiteSpace=wrap;html=1;aspect=fixed;" vertex="1" parent="1">
          <mxGeometry x="517" y="510" width="24" height="24" as="geometry" />
        </mxCell>
        <mxCell id="hfVkXIuvT78MhlZP0iKI-339" value="" style="ellipse;whiteSpace=wrap;html=1;aspect=fixed;" vertex="1" parent="1">
          <mxGeometry x="487" y="475" width="24" height="24" as="geometry" />
        </mxCell>
        <mxCell id="hfVkXIuvT78MhlZP0iKI-340" value="disciplina" style="text;html=1;strokeColor=none;fillColor=none;align=center;verticalAlign=middle;whiteSpace=wrap;rounded=0;" vertex="1" parent="1">
          <mxGeometry x="427" y="480" width="60" height="30" as="geometry" />
        </mxCell>
        <mxCell id="hfVkXIuvT78MhlZP0iKI-341" value="turma" style="text;html=1;strokeColor=none;fillColor=none;align=center;verticalAlign=middle;whiteSpace=wrap;rounded=0;" vertex="1" parent="1">
          <mxGeometry x="457" y="520" width="60" height="30" as="geometry" />
        </mxCell>
        <mxCell id="hfVkXIuvT78MhlZP0iKI-342" value="professor" style="text;html=1;strokeColor=none;fillColor=none;align=center;verticalAlign=middle;whiteSpace=wrap;rounded=0;" vertex="1" parent="1">
          <mxGeometry x="597" y="525" width="60" height="30" as="geometry" />
        </mxCell>
        <mxCell id="hfVkXIuvT78MhlZP0iKI-343" value="horário" style="text;html=1;strokeColor=none;fillColor=none;align=center;verticalAlign=middle;whiteSpace=wrap;rounded=0;" vertex="1" parent="1">
          <mxGeometry x="611" y="490" width="60" height="30" as="geometry" />
        </mxCell>
        <mxCell id="hfVkXIuvT78MhlZP0iKI-582" value="Solado" style="rounded=0;whiteSpace=wrap;html=1;" vertex="1" parent="1">
          <mxGeometry x="17" y="820" width="120" height="60" as="geometry" />
        </mxCell>
        <mxCell id="hfVkXIuvT78MhlZP0iKI-583" value="Armas" style="rounded=0;whiteSpace=wrap;html=1;" vertex="1" parent="1">
          <mxGeometry x="630" y="820" width="120" height="60" as="geometry" />
        </mxCell>
        <mxCell id="hfVkXIuvT78MhlZP0iKI-584" value="possui" style="rhombus;whiteSpace=wrap;html=1;" vertex="1" parent="1">
          <mxGeometry x="337" y="810" width="80" height="80" as="geometry" />
        </mxCell>
        <mxCell id="hfVkXIuvT78MhlZP0iKI-585" value="limpeza" style="rhombus;whiteSpace=wrap;html=1;" vertex="1" parent="1">
          <mxGeometry x="337" y="980" width="80" height="80" as="geometry" />
        </mxCell>
        <mxCell id="hfVkXIuvT78MhlZP0iKI-586" value="Armas" style="rounded=0;whiteSpace=wrap;html=1;" vertex="1" parent="1">
          <mxGeometry x="631" y="990" width="120" height="60" as="geometry" />
        </mxCell>
        <mxCell id="hfVkXIuvT78MhlZP0iKI-587" value="munições" style="rounded=0;whiteSpace=wrap;html=1;" vertex="1" parent="1">
          <mxGeometry x="641" y="1300" width="120" height="60" as="geometry" />
        </mxCell>
        <mxCell id="hfVkXIuvT78MhlZP0iKI-588" value="Utilizar" style="rhombus;whiteSpace=wrap;html=1;" vertex="1" parent="1">
          <mxGeometry x="657" y="1140" width="80" height="80" as="geometry" />
        </mxCell>
        <mxCell id="hfVkXIuvT78MhlZP0iKI-589" value="" style="endArrow=none;html=1;rounded=0;fontSize=14;exitX=1;exitY=0.5;exitDx=0;exitDy=0;entryX=0;entryY=0.5;entryDx=0;entryDy=0;" edge="1" parent="1" source="hfVkXIuvT78MhlZP0iKI-582" target="hfVkXIuvT78MhlZP0iKI-584">
          <mxGeometry width="50" height="50" relative="1" as="geometry">
            <mxPoint x="140" y="860" as="sourcePoint" />
            <mxPoint x="330" y="850" as="targetPoint" />
            <Array as="points">
              <mxPoint x="270" y="850" />
              <mxPoint x="330" y="850" />
            </Array>
          </mxGeometry>
        </mxCell>
        <mxCell id="hfVkXIuvT78MhlZP0iKI-590" value="" style="endArrow=none;html=1;rounded=0;fontSize=14;entryX=0;entryY=0.5;entryDx=0;entryDy=0;" edge="1" parent="1" target="hfVkXIuvT78MhlZP0iKI-583">
          <mxGeometry width="50" height="50" relative="1" as="geometry">
            <mxPoint x="416" y="850" as="sourcePoint" />
            <mxPoint x="486" y="660" as="targetPoint" />
          </mxGeometry>
        </mxCell>
        <mxCell id="hfVkXIuvT78MhlZP0iKI-591" value="" style="endArrow=none;html=1;rounded=0;fontSize=14;" edge="1" parent="1">
          <mxGeometry width="50" height="50" relative="1" as="geometry">
            <mxPoint x="77" y="1020" as="sourcePoint" />
            <mxPoint x="77" y="880" as="targetPoint" />
          </mxGeometry>
        </mxCell>
        <mxCell id="hfVkXIuvT78MhlZP0iKI-592" value="" style="endArrow=none;html=1;rounded=0;fontSize=14;" edge="1" parent="1">
          <mxGeometry width="50" height="50" relative="1" as="geometry">
            <mxPoint x="77" y="1020" as="sourcePoint" />
            <mxPoint x="330" y="1020" as="targetPoint" />
          </mxGeometry>
        </mxCell>
        <mxCell id="hfVkXIuvT78MhlZP0iKI-593" value="" style="endArrow=none;html=1;rounded=0;fontSize=14;entryX=0;entryY=0.5;entryDx=0;entryDy=0;" edge="1" parent="1" target="hfVkXIuvT78MhlZP0iKI-586">
          <mxGeometry width="50" height="50" relative="1" as="geometry">
            <mxPoint x="417" y="1020" as="sourcePoint" />
            <mxPoint x="467" y="970" as="targetPoint" />
          </mxGeometry>
        </mxCell>
        <mxCell id="hfVkXIuvT78MhlZP0iKI-594" value="N" style="text;html=1;strokeColor=none;fillColor=none;align=center;verticalAlign=middle;whiteSpace=wrap;rounded=0;fontSize=14;" vertex="1" parent="1">
          <mxGeometry x="477" y="820" width="60" height="30" as="geometry" />
        </mxCell>
        <mxCell id="hfVkXIuvT78MhlZP0iKI-595" value="1" style="text;html=1;strokeColor=none;fillColor=none;align=center;verticalAlign=middle;whiteSpace=wrap;rounded=0;fontSize=14;" vertex="1" parent="1">
          <mxGeometry x="197" y="820" width="60" height="30" as="geometry" />
        </mxCell>
        <mxCell id="hfVkXIuvT78MhlZP0iKI-596" value="N" style="text;html=1;strokeColor=none;fillColor=none;align=center;verticalAlign=middle;whiteSpace=wrap;rounded=0;fontSize=14;" vertex="1" parent="1">
          <mxGeometry x="192" y="990" width="60" height="30" as="geometry" />
        </mxCell>
        <mxCell id="hfVkXIuvT78MhlZP0iKI-597" value="N" style="text;html=1;strokeColor=none;fillColor=none;align=center;verticalAlign=middle;whiteSpace=wrap;rounded=0;fontSize=14;" vertex="1" parent="1">
          <mxGeometry x="490" y="990" width="60" height="30" as="geometry" />
        </mxCell>
        <mxCell id="hfVkXIuvT78MhlZP0iKI-598" value="" style="endArrow=none;html=1;rounded=0;fontSize=14;entryX=0.558;entryY=1.05;entryDx=0;entryDy=0;entryPerimeter=0;" edge="1" parent="1" source="hfVkXIuvT78MhlZP0iKI-588" target="hfVkXIuvT78MhlZP0iKI-586">
          <mxGeometry width="50" height="50" relative="1" as="geometry">
            <mxPoint x="657" y="1100" as="sourcePoint" />
            <mxPoint x="707" y="1050" as="targetPoint" />
          </mxGeometry>
        </mxCell>
        <mxCell id="hfVkXIuvT78MhlZP0iKI-599" value="" style="endArrow=none;html=1;rounded=0;fontSize=14;" edge="1" parent="1">
          <mxGeometry width="50" height="50" relative="1" as="geometry">
            <mxPoint x="700.5" y="1300" as="sourcePoint" />
            <mxPoint x="700.5" y="1230" as="targetPoint" />
          </mxGeometry>
        </mxCell>
        <mxCell id="hfVkXIuvT78MhlZP0iKI-600" value="N" style="text;html=1;strokeColor=none;fillColor=none;align=center;verticalAlign=middle;whiteSpace=wrap;rounded=0;fontSize=14;" vertex="1" parent="1">
          <mxGeometry x="662" y="1230" width="60" height="30" as="geometry" />
        </mxCell>
        <mxCell id="hfVkXIuvT78MhlZP0iKI-601" value="N" style="text;html=1;strokeColor=none;fillColor=none;align=center;verticalAlign=middle;whiteSpace=wrap;rounded=0;fontSize=14;" vertex="1" parent="1">
          <mxGeometry x="660" y="1078.5" width="60" height="30" as="geometry" />
        </mxCell>
        <mxCell id="hfVkXIuvT78MhlZP0iKI-602" value="Contém" style="rhombus;whiteSpace=wrap;html=1;fontSize=14;" vertex="1" parent="1">
          <mxGeometry x="440" y="1290" width="80" height="80" as="geometry" />
        </mxCell>
        <mxCell id="hfVkXIuvT78MhlZP0iKI-603" value="Tipo Munição" style="rounded=0;whiteSpace=wrap;html=1;fontSize=14;" vertex="1" parent="1">
          <mxGeometry x="200" y="1300" width="120" height="60" as="geometry" />
        </mxCell>
        <mxCell id="hfVkXIuvT78MhlZP0iKI-604" value="" style="endArrow=none;html=1;rounded=0;fontSize=14;" edge="1" parent="1" source="hfVkXIuvT78MhlZP0iKI-603">
          <mxGeometry width="50" height="50" relative="1" as="geometry">
            <mxPoint x="390" y="1380" as="sourcePoint" />
            <mxPoint x="440" y="1330" as="targetPoint" />
          </mxGeometry>
        </mxCell>
        <mxCell id="hfVkXIuvT78MhlZP0iKI-605" value="" style="endArrow=none;html=1;rounded=0;fontSize=14;entryX=0;entryY=0.5;entryDx=0;entryDy=0;" edge="1" parent="1" target="hfVkXIuvT78MhlZP0iKI-587">
          <mxGeometry width="50" height="50" relative="1" as="geometry">
            <mxPoint x="517" y="1330" as="sourcePoint" />
            <mxPoint x="567" y="1280" as="targetPoint" />
          </mxGeometry>
        </mxCell>
        <mxCell id="hfVkXIuvT78MhlZP0iKI-606" value="N" style="text;html=1;strokeColor=none;fillColor=none;align=center;verticalAlign=middle;whiteSpace=wrap;rounded=0;fontSize=14;" vertex="1" parent="1">
          <mxGeometry x="550" y="1300" width="60" height="30" as="geometry" />
        </mxCell>
        <mxCell id="hfVkXIuvT78MhlZP0iKI-607" value="N" style="text;html=1;strokeColor=none;fillColor=none;align=center;verticalAlign=middle;whiteSpace=wrap;rounded=0;fontSize=14;" vertex="1" parent="1">
          <mxGeometry x="350" y="1300" width="60" height="30" as="geometry" />
        </mxCell>
        <mxCell id="hfVkXIuvT78MhlZP0iKI-608" value="" style="endArrow=none;html=1;rounded=0;fontSize=14;" edge="1" parent="1">
          <mxGeometry width="50" height="50" relative="1" as="geometry">
            <mxPoint x="67" y="820" as="sourcePoint" />
            <mxPoint x="50" y="730" as="targetPoint" />
          </mxGeometry>
        </mxCell>
        <mxCell id="hfVkXIuvT78MhlZP0iKI-609" value="" style="endArrow=none;html=1;rounded=0;fontSize=14;" edge="1" parent="1">
          <mxGeometry width="50" height="50" relative="1" as="geometry">
            <mxPoint x="67" y="810" as="sourcePoint" />
            <mxPoint x="100" y="790" as="targetPoint" />
          </mxGeometry>
        </mxCell>
        <mxCell id="hfVkXIuvT78MhlZP0iKI-610" value="" style="endArrow=none;html=1;rounded=0;fontSize=14;" edge="1" parent="1">
          <mxGeometry width="50" height="50" relative="1" as="geometry">
            <mxPoint x="40" y="800" as="sourcePoint" />
            <mxPoint x="67" y="810" as="targetPoint" />
          </mxGeometry>
        </mxCell>
        <mxCell id="hfVkXIuvT78MhlZP0iKI-611" value="Registro&lt;br&gt;Militar" style="ellipse;whiteSpace=wrap;html=1;aspect=fixed;fontSize=14;" vertex="1" parent="1">
          <mxGeometry x="90" y="758" width="62" height="62" as="geometry" />
        </mxCell>
        <mxCell id="hfVkXIuvT78MhlZP0iKI-612" value="Nome" style="ellipse;whiteSpace=wrap;html=1;aspect=fixed;fontSize=14;" vertex="1" parent="1">
          <mxGeometry y="758" width="52" height="52" as="geometry" />
        </mxCell>
        <mxCell id="hfVkXIuvT78MhlZP0iKI-613" value="&lt;font style=&quot;font-size: 9px;&quot;&gt;Nascimento&lt;/font&gt;" style="ellipse;whiteSpace=wrap;html=1;aspect=fixed;fontSize=14;" vertex="1" parent="1">
          <mxGeometry x="17" y="690" width="52" height="52" as="geometry" />
        </mxCell>
        <mxCell id="hfVkXIuvT78MhlZP0iKI-614" value="" style="endArrow=none;html=1;rounded=0;fontSize=14;" edge="1" parent="1">
          <mxGeometry width="50" height="50" relative="1" as="geometry">
            <mxPoint x="708" y="820" as="sourcePoint" />
            <mxPoint x="691" y="730" as="targetPoint" />
          </mxGeometry>
        </mxCell>
        <mxCell id="hfVkXIuvT78MhlZP0iKI-615" value="" style="endArrow=none;html=1;rounded=0;fontSize=14;" edge="1" parent="1">
          <mxGeometry width="50" height="50" relative="1" as="geometry">
            <mxPoint x="708" y="810" as="sourcePoint" />
            <mxPoint x="741" y="790" as="targetPoint" />
          </mxGeometry>
        </mxCell>
        <mxCell id="hfVkXIuvT78MhlZP0iKI-616" value="" style="endArrow=none;html=1;rounded=0;fontSize=14;" edge="1" parent="1">
          <mxGeometry width="50" height="50" relative="1" as="geometry">
            <mxPoint x="681" y="800" as="sourcePoint" />
            <mxPoint x="708" y="810" as="targetPoint" />
          </mxGeometry>
        </mxCell>
        <mxCell id="hfVkXIuvT78MhlZP0iKI-617" value="Nº Série" style="ellipse;whiteSpace=wrap;html=1;aspect=fixed;fontSize=14;" vertex="1" parent="1">
          <mxGeometry x="641" y="758" width="52" height="52" as="geometry" />
        </mxCell>
        <mxCell id="hfVkXIuvT78MhlZP0iKI-618" value="&lt;font size=&quot;1&quot;&gt;tipo de munição&lt;/font&gt;" style="ellipse;whiteSpace=wrap;html=1;aspect=fixed;fontSize=14;" vertex="1" parent="1">
          <mxGeometry x="658" y="690" width="50" height="50" as="geometry" />
        </mxCell>
        <mxCell id="hfVkXIuvT78MhlZP0iKI-619" value="Munição" style="ellipse;whiteSpace=wrap;html=1;aspect=fixed;fontSize=14;" vertex="1" parent="1">
          <mxGeometry x="722" y="696" width="62" height="62" as="geometry" />
        </mxCell>
        <mxCell id="hfVkXIuvT78MhlZP0iKI-620" value="" style="endArrow=none;html=1;rounded=0;fontSize=9;entryX=0;entryY=1;entryDx=0;entryDy=0;" edge="1" parent="1" target="hfVkXIuvT78MhlZP0iKI-619">
          <mxGeometry width="50" height="50" relative="1" as="geometry">
            <mxPoint x="708" y="808" as="sourcePoint" />
            <mxPoint x="758" y="758" as="targetPoint" />
          </mxGeometry>
        </mxCell>
        <mxCell id="hfVkXIuvT78MhlZP0iKI-621" value="Solado" style="rounded=0;whiteSpace=wrap;html=1;" vertex="1" parent="1">
          <mxGeometry x="17" y="820" width="120" height="60" as="geometry" />
        </mxCell>
        <mxCell id="hfVkXIuvT78MhlZP0iKI-622" value="Armas" style="rounded=0;whiteSpace=wrap;html=1;" vertex="1" parent="1">
          <mxGeometry x="630" y="820" width="120" height="60" as="geometry" />
        </mxCell>
        <mxCell id="hfVkXIuvT78MhlZP0iKI-623" value="possui" style="rhombus;whiteSpace=wrap;html=1;" vertex="1" parent="1">
          <mxGeometry x="337" y="810" width="80" height="80" as="geometry" />
        </mxCell>
        <mxCell id="hfVkXIuvT78MhlZP0iKI-624" value="limpeza" style="rhombus;whiteSpace=wrap;html=1;" vertex="1" parent="1">
          <mxGeometry x="337" y="980" width="80" height="80" as="geometry" />
        </mxCell>
        <mxCell id="hfVkXIuvT78MhlZP0iKI-625" value="Armas" style="rounded=0;whiteSpace=wrap;html=1;" vertex="1" parent="1">
          <mxGeometry x="631" y="990" width="120" height="60" as="geometry" />
        </mxCell>
        <mxCell id="hfVkXIuvT78MhlZP0iKI-626" value="munições" style="rounded=0;whiteSpace=wrap;html=1;" vertex="1" parent="1">
          <mxGeometry x="641" y="1300" width="120" height="60" as="geometry" />
        </mxCell>
        <mxCell id="hfVkXIuvT78MhlZP0iKI-627" value="Utilizar" style="rhombus;whiteSpace=wrap;html=1;" vertex="1" parent="1">
          <mxGeometry x="657" y="1140" width="80" height="80" as="geometry" />
        </mxCell>
        <mxCell id="hfVkXIuvT78MhlZP0iKI-628" value="" style="endArrow=none;html=1;rounded=0;fontSize=14;exitX=1;exitY=0.5;exitDx=0;exitDy=0;entryX=0;entryY=0.5;entryDx=0;entryDy=0;" edge="1" parent="1" source="hfVkXIuvT78MhlZP0iKI-621" target="hfVkXIuvT78MhlZP0iKI-623">
          <mxGeometry width="50" height="50" relative="1" as="geometry">
            <mxPoint x="140" y="860" as="sourcePoint" />
            <mxPoint x="330" y="850" as="targetPoint" />
            <Array as="points">
              <mxPoint x="270" y="850" />
              <mxPoint x="330" y="850" />
            </Array>
          </mxGeometry>
        </mxCell>
        <mxCell id="hfVkXIuvT78MhlZP0iKI-629" value="" style="endArrow=none;html=1;rounded=0;fontSize=14;entryX=0;entryY=0.5;entryDx=0;entryDy=0;" edge="1" parent="1" target="hfVkXIuvT78MhlZP0iKI-622">
          <mxGeometry width="50" height="50" relative="1" as="geometry">
            <mxPoint x="416" y="850" as="sourcePoint" />
            <mxPoint x="486" y="660" as="targetPoint" />
          </mxGeometry>
        </mxCell>
        <mxCell id="hfVkXIuvT78MhlZP0iKI-630" value="" style="endArrow=none;html=1;rounded=0;fontSize=14;" edge="1" parent="1">
          <mxGeometry width="50" height="50" relative="1" as="geometry">
            <mxPoint x="77" y="1020" as="sourcePoint" />
            <mxPoint x="77" y="880" as="targetPoint" />
          </mxGeometry>
        </mxCell>
        <mxCell id="hfVkXIuvT78MhlZP0iKI-631" value="" style="endArrow=none;html=1;rounded=0;fontSize=14;" edge="1" parent="1">
          <mxGeometry width="50" height="50" relative="1" as="geometry">
            <mxPoint x="77" y="1020" as="sourcePoint" />
            <mxPoint x="330" y="1020" as="targetPoint" />
          </mxGeometry>
        </mxCell>
        <mxCell id="hfVkXIuvT78MhlZP0iKI-632" value="" style="endArrow=none;html=1;rounded=0;fontSize=14;entryX=0;entryY=0.5;entryDx=0;entryDy=0;" edge="1" parent="1" target="hfVkXIuvT78MhlZP0iKI-625">
          <mxGeometry width="50" height="50" relative="1" as="geometry">
            <mxPoint x="417" y="1020" as="sourcePoint" />
            <mxPoint x="467" y="970" as="targetPoint" />
          </mxGeometry>
        </mxCell>
        <mxCell id="hfVkXIuvT78MhlZP0iKI-633" value="N" style="text;html=1;strokeColor=none;fillColor=none;align=center;verticalAlign=middle;whiteSpace=wrap;rounded=0;fontSize=14;" vertex="1" parent="1">
          <mxGeometry x="477" y="820" width="60" height="30" as="geometry" />
        </mxCell>
        <mxCell id="hfVkXIuvT78MhlZP0iKI-634" value="1" style="text;html=1;strokeColor=none;fillColor=none;align=center;verticalAlign=middle;whiteSpace=wrap;rounded=0;fontSize=14;" vertex="1" parent="1">
          <mxGeometry x="197" y="820" width="60" height="30" as="geometry" />
        </mxCell>
        <mxCell id="hfVkXIuvT78MhlZP0iKI-635" value="N" style="text;html=1;strokeColor=none;fillColor=none;align=center;verticalAlign=middle;whiteSpace=wrap;rounded=0;fontSize=14;" vertex="1" parent="1">
          <mxGeometry x="192" y="990" width="60" height="30" as="geometry" />
        </mxCell>
        <mxCell id="hfVkXIuvT78MhlZP0iKI-636" value="N" style="text;html=1;strokeColor=none;fillColor=none;align=center;verticalAlign=middle;whiteSpace=wrap;rounded=0;fontSize=14;" vertex="1" parent="1">
          <mxGeometry x="490" y="990" width="60" height="30" as="geometry" />
        </mxCell>
        <mxCell id="hfVkXIuvT78MhlZP0iKI-637" value="" style="endArrow=none;html=1;rounded=0;fontSize=14;entryX=0.558;entryY=1.05;entryDx=0;entryDy=0;entryPerimeter=0;" edge="1" parent="1" source="hfVkXIuvT78MhlZP0iKI-627" target="hfVkXIuvT78MhlZP0iKI-625">
          <mxGeometry width="50" height="50" relative="1" as="geometry">
            <mxPoint x="657" y="1100" as="sourcePoint" />
            <mxPoint x="707" y="1050" as="targetPoint" />
          </mxGeometry>
        </mxCell>
        <mxCell id="hfVkXIuvT78MhlZP0iKI-638" value="" style="endArrow=none;html=1;rounded=0;fontSize=14;" edge="1" parent="1">
          <mxGeometry width="50" height="50" relative="1" as="geometry">
            <mxPoint x="700.5" y="1300" as="sourcePoint" />
            <mxPoint x="700.5" y="1230" as="targetPoint" />
          </mxGeometry>
        </mxCell>
        <mxCell id="hfVkXIuvT78MhlZP0iKI-639" value="N" style="text;html=1;strokeColor=none;fillColor=none;align=center;verticalAlign=middle;whiteSpace=wrap;rounded=0;fontSize=14;" vertex="1" parent="1">
          <mxGeometry x="662" y="1230" width="60" height="30" as="geometry" />
        </mxCell>
        <mxCell id="hfVkXIuvT78MhlZP0iKI-640" value="N" style="text;html=1;strokeColor=none;fillColor=none;align=center;verticalAlign=middle;whiteSpace=wrap;rounded=0;fontSize=14;" vertex="1" parent="1">
          <mxGeometry x="660" y="1078.5" width="60" height="30" as="geometry" />
        </mxCell>
        <mxCell id="hfVkXIuvT78MhlZP0iKI-641" value="Contém" style="rhombus;whiteSpace=wrap;html=1;fontSize=14;" vertex="1" parent="1">
          <mxGeometry x="440" y="1290" width="80" height="80" as="geometry" />
        </mxCell>
        <mxCell id="hfVkXIuvT78MhlZP0iKI-642" value="Tipo Munição" style="rounded=0;whiteSpace=wrap;html=1;fontSize=14;" vertex="1" parent="1">
          <mxGeometry x="200" y="1300" width="120" height="60" as="geometry" />
        </mxCell>
        <mxCell id="hfVkXIuvT78MhlZP0iKI-643" value="" style="endArrow=none;html=1;rounded=0;fontSize=14;" edge="1" parent="1" source="hfVkXIuvT78MhlZP0iKI-642">
          <mxGeometry width="50" height="50" relative="1" as="geometry">
            <mxPoint x="390" y="1380" as="sourcePoint" />
            <mxPoint x="440" y="1330" as="targetPoint" />
          </mxGeometry>
        </mxCell>
        <mxCell id="hfVkXIuvT78MhlZP0iKI-644" value="" style="endArrow=none;html=1;rounded=0;fontSize=14;entryX=0;entryY=0.5;entryDx=0;entryDy=0;" edge="1" parent="1" target="hfVkXIuvT78MhlZP0iKI-626">
          <mxGeometry width="50" height="50" relative="1" as="geometry">
            <mxPoint x="517" y="1330" as="sourcePoint" />
            <mxPoint x="567" y="1280" as="targetPoint" />
          </mxGeometry>
        </mxCell>
        <mxCell id="hfVkXIuvT78MhlZP0iKI-645" value="N" style="text;html=1;strokeColor=none;fillColor=none;align=center;verticalAlign=middle;whiteSpace=wrap;rounded=0;fontSize=14;" vertex="1" parent="1">
          <mxGeometry x="550" y="1300" width="60" height="30" as="geometry" />
        </mxCell>
        <mxCell id="hfVkXIuvT78MhlZP0iKI-646" value="N" style="text;html=1;strokeColor=none;fillColor=none;align=center;verticalAlign=middle;whiteSpace=wrap;rounded=0;fontSize=14;" vertex="1" parent="1">
          <mxGeometry x="350" y="1300" width="60" height="30" as="geometry" />
        </mxCell>
        <mxCell id="hfVkXIuvT78MhlZP0iKI-647" value="" style="endArrow=none;html=1;rounded=0;fontSize=14;" edge="1" parent="1">
          <mxGeometry width="50" height="50" relative="1" as="geometry">
            <mxPoint x="67" y="820" as="sourcePoint" />
            <mxPoint x="50" y="730" as="targetPoint" />
          </mxGeometry>
        </mxCell>
        <mxCell id="hfVkXIuvT78MhlZP0iKI-648" value="" style="endArrow=none;html=1;rounded=0;fontSize=14;" edge="1" parent="1">
          <mxGeometry width="50" height="50" relative="1" as="geometry">
            <mxPoint x="67" y="810" as="sourcePoint" />
            <mxPoint x="100" y="790" as="targetPoint" />
          </mxGeometry>
        </mxCell>
        <mxCell id="hfVkXIuvT78MhlZP0iKI-649" value="" style="endArrow=none;html=1;rounded=0;fontSize=14;" edge="1" parent="1">
          <mxGeometry width="50" height="50" relative="1" as="geometry">
            <mxPoint x="40" y="800" as="sourcePoint" />
            <mxPoint x="67" y="810" as="targetPoint" />
          </mxGeometry>
        </mxCell>
        <mxCell id="hfVkXIuvT78MhlZP0iKI-650" value="Registro&lt;br&gt;Militar" style="ellipse;whiteSpace=wrap;html=1;aspect=fixed;fontSize=14;" vertex="1" parent="1">
          <mxGeometry x="90" y="758" width="62" height="62" as="geometry" />
        </mxCell>
        <mxCell id="hfVkXIuvT78MhlZP0iKI-651" value="Nome" style="ellipse;whiteSpace=wrap;html=1;aspect=fixed;fontSize=14;" vertex="1" parent="1">
          <mxGeometry y="758" width="52" height="52" as="geometry" />
        </mxCell>
        <mxCell id="hfVkXIuvT78MhlZP0iKI-652" value="&lt;font style=&quot;font-size: 9px;&quot;&gt;Nascimento&lt;/font&gt;" style="ellipse;whiteSpace=wrap;html=1;aspect=fixed;fontSize=14;" vertex="1" parent="1">
          <mxGeometry x="17" y="690" width="52" height="52" as="geometry" />
        </mxCell>
        <mxCell id="hfVkXIuvT78MhlZP0iKI-653" value="" style="endArrow=none;html=1;rounded=0;fontSize=14;" edge="1" parent="1">
          <mxGeometry width="50" height="50" relative="1" as="geometry">
            <mxPoint x="708" y="820" as="sourcePoint" />
            <mxPoint x="691" y="730" as="targetPoint" />
          </mxGeometry>
        </mxCell>
        <mxCell id="hfVkXIuvT78MhlZP0iKI-654" value="" style="endArrow=none;html=1;rounded=0;fontSize=14;" edge="1" parent="1">
          <mxGeometry width="50" height="50" relative="1" as="geometry">
            <mxPoint x="708" y="810" as="sourcePoint" />
            <mxPoint x="741" y="790" as="targetPoint" />
          </mxGeometry>
        </mxCell>
        <mxCell id="hfVkXIuvT78MhlZP0iKI-655" value="" style="endArrow=none;html=1;rounded=0;fontSize=14;" edge="1" parent="1">
          <mxGeometry width="50" height="50" relative="1" as="geometry">
            <mxPoint x="681" y="800" as="sourcePoint" />
            <mxPoint x="708" y="810" as="targetPoint" />
          </mxGeometry>
        </mxCell>
        <mxCell id="hfVkXIuvT78MhlZP0iKI-656" value="Nº Série" style="ellipse;whiteSpace=wrap;html=1;aspect=fixed;fontSize=14;" vertex="1" parent="1">
          <mxGeometry x="641" y="758" width="52" height="52" as="geometry" />
        </mxCell>
        <mxCell id="hfVkXIuvT78MhlZP0iKI-657" value="&lt;font size=&quot;1&quot;&gt;tipo de munição&lt;/font&gt;" style="ellipse;whiteSpace=wrap;html=1;aspect=fixed;fontSize=14;" vertex="1" parent="1">
          <mxGeometry x="658" y="690" width="50" height="50" as="geometry" />
        </mxCell>
        <mxCell id="hfVkXIuvT78MhlZP0iKI-658" value="Munição" style="ellipse;whiteSpace=wrap;html=1;aspect=fixed;fontSize=14;" vertex="1" parent="1">
          <mxGeometry x="722" y="696" width="62" height="62" as="geometry" />
        </mxCell>
        <mxCell id="hfVkXIuvT78MhlZP0iKI-659" value="" style="endArrow=none;html=1;rounded=0;fontSize=9;entryX=0;entryY=1;entryDx=0;entryDy=0;" edge="1" parent="1" target="hfVkXIuvT78MhlZP0iKI-658">
          <mxGeometry width="50" height="50" relative="1" as="geometry">
            <mxPoint x="708" y="808" as="sourcePoint" />
            <mxPoint x="758" y="758" as="targetPoint" />
          </mxGeometry>
        </mxCell>
        <mxCell id="hfVkXIuvT78MhlZP0iKI-661" value="&lt;font style=&quot;font-size: 12px;&quot;&gt;Médico&lt;/font&gt;" style="rounded=0;whiteSpace=wrap;html=1;fontSize=9;" vertex="1" parent="1">
          <mxGeometry x="-810" y="920" width="120" height="60" as="geometry" />
        </mxCell>
        <mxCell id="hfVkXIuvT78MhlZP0iKI-662" value="&lt;font style=&quot;font-size: 12px;&quot;&gt;Pacientes&lt;/font&gt;" style="rounded=0;whiteSpace=wrap;html=1;fontSize=9;" vertex="1" parent="1">
          <mxGeometry x="-280" y="920" width="120" height="60" as="geometry" />
        </mxCell>
        <mxCell id="hfVkXIuvT78MhlZP0iKI-746" value="&lt;span style=&quot;font-size: 12px;&quot;&gt;Consulta/&lt;br&gt;Atendimento&lt;/span&gt;" style="rhombus;whiteSpace=wrap;html=1;fontSize=9;" vertex="1" parent="1">
          <mxGeometry x="-540" y="1020" width="110" height="110" as="geometry" />
        </mxCell>
        <mxCell id="hfVkXIuvT78MhlZP0iKI-748" value="" style="endArrow=none;html=1;rounded=0;fontSize=12;entryX=0;entryY=0.5;entryDx=0;entryDy=0;" edge="1" parent="1" target="hfVkXIuvT78MhlZP0iKI-746">
          <mxGeometry width="50" height="50" relative="1" as="geometry">
            <mxPoint x="-750" y="1078.5" as="sourcePoint" />
            <mxPoint x="-700" y="1028.5" as="targetPoint" />
          </mxGeometry>
        </mxCell>
        <mxCell id="hfVkXIuvT78MhlZP0iKI-749" value="" style="endArrow=none;html=1;rounded=0;fontSize=12;exitX=1;exitY=0.5;exitDx=0;exitDy=0;" edge="1" parent="1" source="hfVkXIuvT78MhlZP0iKI-746">
          <mxGeometry width="50" height="50" relative="1" as="geometry">
            <mxPoint x="-420" y="1080" as="sourcePoint" />
            <mxPoint x="-240" y="1070" as="targetPoint" />
          </mxGeometry>
        </mxCell>
        <mxCell id="hfVkXIuvT78MhlZP0iKI-751" value="" style="endArrow=none;html=1;rounded=0;fontSize=12;startArrow=none;" edge="1" parent="1" source="hfVkXIuvT78MhlZP0iKI-754">
          <mxGeometry width="50" height="50" relative="1" as="geometry">
            <mxPoint x="-210" y="1090" as="sourcePoint" />
            <mxPoint x="-200" y="1110" as="targetPoint" />
            <Array as="points">
              <mxPoint x="-160" y="980" />
            </Array>
          </mxGeometry>
        </mxCell>
        <mxCell id="hfVkXIuvT78MhlZP0iKI-753" value="" style="endArrow=none;html=1;rounded=0;fontSize=12;" edge="1" parent="1">
          <mxGeometry width="50" height="50" relative="1" as="geometry">
            <mxPoint x="-90" y="1070" as="sourcePoint" />
            <mxPoint x="-130" y="1080" as="targetPoint" />
            <Array as="points">
              <mxPoint x="-160" y="980" />
            </Array>
          </mxGeometry>
        </mxCell>
        <mxCell id="hfVkXIuvT78MhlZP0iKI-755" value="Código" style="ellipse;whiteSpace=wrap;html=1;aspect=fixed;fontSize=12;" vertex="1" parent="1">
          <mxGeometry x="-90" y="1050" width="60" height="60" as="geometry" />
        </mxCell>
        <mxCell id="hfVkXIuvT78MhlZP0iKI-756" value="&lt;font style=&quot;font-size: 12px;&quot;&gt;Endereço&lt;/font&gt;" style="ellipse;whiteSpace=wrap;html=1;aspect=fixed;fontSize=12;" vertex="1" parent="1">
          <mxGeometry x="-230" y="1108.5" width="61.5" height="61.5" as="geometry" />
        </mxCell>
        <mxCell id="hfVkXIuvT78MhlZP0iKI-757" value="Idade" style="ellipse;whiteSpace=wrap;html=1;aspect=fixed;fontSize=12;" vertex="1" parent="1">
          <mxGeometry x="-140" y="1078.5" width="41.5" height="41.5" as="geometry" />
        </mxCell>
        <mxCell id="hfVkXIuvT78MhlZP0iKI-758" value="N" style="text;html=1;strokeColor=none;fillColor=none;align=center;verticalAlign=middle;whiteSpace=wrap;rounded=0;fontSize=12;" vertex="1" parent="1">
          <mxGeometry x="-690" y="1055" width="60" height="30" as="geometry" />
        </mxCell>
        <mxCell id="hfVkXIuvT78MhlZP0iKI-759" value="N" style="text;html=1;strokeColor=none;fillColor=none;align=center;verticalAlign=middle;whiteSpace=wrap;rounded=0;fontSize=12;" vertex="1" parent="1">
          <mxGeometry x="-350" y="1055" width="60" height="30" as="geometry" />
        </mxCell>
        <mxCell id="hfVkXIuvT78MhlZP0iKI-754" value="Nome" style="ellipse;whiteSpace=wrap;html=1;aspect=fixed;fontSize=12;" vertex="1" parent="1">
          <mxGeometry x="-230" y="1060" width="40" height="40" as="geometry" />
        </mxCell>
        <mxCell id="hfVkXIuvT78MhlZP0iKI-777" value="" style="endArrow=none;html=1;rounded=0;fontSize=13;" edge="1" parent="1">
          <mxGeometry width="50" height="50" relative="1" as="geometry">
            <mxPoint x="-463" y="1205" as="sourcePoint" />
            <mxPoint x="-240" y="1200" as="targetPoint" />
          </mxGeometry>
        </mxCell>
        <mxCell id="hfVkXIuvT78MhlZP0iKI-780" value="Receita" style="rounded=0;whiteSpace=wrap;html=1;fontSize=13;" vertex="1" parent="1">
          <mxGeometry x="-545" y="1170" width="120" height="60" as="geometry" />
        </mxCell>
        <mxCell id="hfVkXIuvT78MhlZP0iKI-785" value="" style="endArrow=none;html=1;rounded=0;fontSize=12;" edge="1" parent="1">
          <mxGeometry width="50" height="50" relative="1" as="geometry">
            <mxPoint x="-750" y="1080" as="sourcePoint" />
            <mxPoint x="-740" y="980" as="targetPoint" />
          </mxGeometry>
        </mxCell>
        <mxCell id="hfVkXIuvT78MhlZP0iKI-786" value="" style="endArrow=none;html=1;rounded=0;fontSize=12;entryX=0.5;entryY=1;entryDx=0;entryDy=0;" edge="1" parent="1" source="hfVkXIuvT78MhlZP0iKI-780" target="hfVkXIuvT78MhlZP0iKI-746">
          <mxGeometry width="50" height="50" relative="1" as="geometry">
            <mxPoint x="-520" y="1169" as="sourcePoint" />
            <mxPoint x="-470" y="1119" as="targetPoint" />
          </mxGeometry>
        </mxCell>
        <mxCell id="hfVkXIuvT78MhlZP0iKI-787" value="&lt;span style=&quot;font-size: 12px;&quot;&gt;Gera&lt;/span&gt;" style="rhombus;whiteSpace=wrap;html=1;fontSize=9;" vertex="1" parent="1">
          <mxGeometry x="-700" y="1159" width="80" height="80" as="geometry" />
        </mxCell>
        <mxCell id="hfVkXIuvT78MhlZP0iKI-788" value="&lt;span style=&quot;font-size: 12px;&quot;&gt;Solicita&lt;/span&gt;" style="rhombus;whiteSpace=wrap;html=1;fontSize=9;" vertex="1" parent="1">
          <mxGeometry x="-300" y="1169" width="80" height="80" as="geometry" />
        </mxCell>
        <mxCell id="hfVkXIuvT78MhlZP0iKI-789" value="Remédios" style="rounded=0;whiteSpace=wrap;html=1;fontSize=12;" vertex="1" parent="1">
          <mxGeometry x="-740" y="1320" width="120" height="60" as="geometry" />
        </mxCell>
        <mxCell id="hfVkXIuvT78MhlZP0iKI-790" value="Exames" style="rounded=0;whiteSpace=wrap;html=1;fontSize=12;" vertex="1" parent="1">
          <mxGeometry x="-330" y="1320" width="120" height="60" as="geometry" />
        </mxCell>
        <mxCell id="hfVkXIuvT78MhlZP0iKI-791" value="" style="endArrow=none;html=1;rounded=0;fontSize=12;" edge="1" parent="1">
          <mxGeometry width="50" height="50" relative="1" as="geometry">
            <mxPoint x="-240" y="1070" as="sourcePoint" />
            <mxPoint x="-220" y="980" as="targetPoint" />
          </mxGeometry>
        </mxCell>
        <mxCell id="hfVkXIuvT78MhlZP0iKI-792" value="" style="endArrow=none;html=1;rounded=0;fontSize=12;" edge="1" parent="1">
          <mxGeometry width="50" height="50" relative="1" as="geometry">
            <mxPoint x="-620" y="1200" as="sourcePoint" />
            <mxPoint x="-550" y="1200" as="targetPoint" />
          </mxGeometry>
        </mxCell>
        <mxCell id="hfVkXIuvT78MhlZP0iKI-793" value="" style="endArrow=none;html=1;rounded=0;fontSize=12;" edge="1" parent="1">
          <mxGeometry width="50" height="50" relative="1" as="geometry">
            <mxPoint x="-685" y="1320" as="sourcePoint" />
            <mxPoint x="-660" y="1240" as="targetPoint" />
          </mxGeometry>
        </mxCell>
        <mxCell id="hfVkXIuvT78MhlZP0iKI-794" value="" style="endArrow=none;html=1;rounded=0;fontSize=12;exitX=0.575;exitY=-0.05;exitDx=0;exitDy=0;exitPerimeter=0;startArrow=none;" edge="1" parent="1" source="hfVkXIuvT78MhlZP0iKI-799">
          <mxGeometry width="50" height="50" relative="1" as="geometry">
            <mxPoint x="-300" y="1290" as="sourcePoint" />
            <mxPoint x="-261" y="1250" as="targetPoint" />
          </mxGeometry>
        </mxCell>
        <mxCell id="hfVkXIuvT78MhlZP0iKI-796" value="1" style="text;html=1;strokeColor=none;fillColor=none;align=center;verticalAlign=middle;whiteSpace=wrap;rounded=0;fontSize=12;" vertex="1" parent="1">
          <mxGeometry x="-605" y="1165" width="60" height="30" as="geometry" />
        </mxCell>
        <mxCell id="hfVkXIuvT78MhlZP0iKI-797" value="1" style="text;html=1;strokeColor=none;fillColor=none;align=center;verticalAlign=middle;whiteSpace=wrap;rounded=0;fontSize=12;" vertex="1" parent="1">
          <mxGeometry x="-370" y="1170" width="60" height="30" as="geometry" />
        </mxCell>
        <mxCell id="hfVkXIuvT78MhlZP0iKI-798" value="N" style="text;html=1;strokeColor=none;fillColor=none;align=center;verticalAlign=middle;whiteSpace=wrap;rounded=0;fontSize=12;" vertex="1" parent="1">
          <mxGeometry x="-680" y="1260" width="60" height="30" as="geometry" />
        </mxCell>
        <mxCell id="hfVkXIuvT78MhlZP0iKI-799" value="N" style="text;html=1;strokeColor=none;fillColor=none;align=center;verticalAlign=middle;whiteSpace=wrap;rounded=0;fontSize=12;" vertex="1" parent="1">
          <mxGeometry x="-310" y="1260" width="60" height="30" as="geometry" />
        </mxCell>
        <mxCell id="hfVkXIuvT78MhlZP0iKI-800" value="" style="endArrow=none;html=1;rounded=0;fontSize=12;exitX=0.575;exitY=-0.05;exitDx=0;exitDy=0;exitPerimeter=0;" edge="1" parent="1" source="hfVkXIuvT78MhlZP0iKI-790" target="hfVkXIuvT78MhlZP0iKI-799">
          <mxGeometry width="50" height="50" relative="1" as="geometry">
            <mxPoint x="-261" y="1317" as="sourcePoint" />
            <mxPoint x="-261" y="1250" as="targetPoint" />
          </mxGeometry>
        </mxCell>
        <mxCell id="hfVkXIuvT78MhlZP0iKI-801" value="1" style="text;html=1;strokeColor=none;fillColor=none;align=center;verticalAlign=middle;whiteSpace=wrap;rounded=0;fontSize=12;" vertex="1" parent="1">
          <mxGeometry x="-530" y="1120" width="60" height="30" as="geometry" />
        </mxCell>
      </root>
    </mxGraphModel>
  </diagram>
</mxfile>
